# xmcd
#
# Track frame offsets:
#	150
#	19299
#	36947
#	52956
#	76623
#	94956
#	110572
#	130084
#	143569
#	158463
#	176425
#
# Disc length: 2579 seconds
#
# Revision: 0
# Processed by: cddbd v1.5.2PL0 Copyright (c) Steve Scherf et al.
# Submitted via: EasyCDDAExtractor 12.0.1.1
#
DISCID=7f0a110b
DTITLE=The Mavericks - Play The Hits
DYEAR=2019
DGENRE=Americana
TTITLE0=Swingin'
TTITLE1=Are You Sure Hank Done It This Way
TTITLE2=Blame It On Your Heart
TTITLE3=Dont You Ever Get Tired (Of Hurting Me)
TTITLE4=Before The Next Teardrop Falls
TTITLE5=Hungry Heart
TTITLE6=Why Can't She Be You
TTITLE7=Once Upon A Time [featuring Martina McBride]
TTITLE8=Don't Be Cruel
TTITLE9=Blue Eyes Crying In The Rain
TTITLE10=I'm Leaving It Up To You
EXTD=
EXTT0=
EXTT1=
EXTT2=
EXTT3=
EXTT4=
EXTT5=
EXTT6=
EXTT7=
EXTT8=
EXTT9=
EXTT10=
PLAYORDER=
